<svg width="51" height="50" viewBox="0 0 51 50" fill="none" xmlns="http://www.w3.org/2000/svg">
<g filter="url(#filter0_d_46_454)">
<path d="M30.9185 23.3201C30.6595 23.5711 30.5405 23.9341 30.5995 24.2901L31.4885 29.2101C31.5635 29.6271 31.3875 30.0491 31.0385 30.2901C30.6965 30.5401 30.2415 30.5701 29.8685 30.3701L25.4395 28.0601C25.2855 27.9781 25.1145 27.9341 24.9395 27.9291H24.6685C24.5745 27.9431 24.4825 27.9731 24.3985 28.0191L19.9685 30.3401C19.7495 30.4501 19.5015 30.4891 19.2585 30.4501C18.6665 30.3381 18.2715 29.7741 18.3685 29.1791L19.2585 24.2591C19.3175 23.9001 19.1985 23.5351 18.9395 23.2801L15.3285 19.7801C15.0265 19.4871 14.9215 19.0471 15.0595 18.6501C15.1935 18.2541 15.5355 17.9651 15.9485 17.9001L20.9185 17.1791C21.2965 17.1401 21.6285 16.9101 21.7985 16.5701L23.9885 12.0801C24.0405 11.9801 24.1075 11.8881 24.1885 11.8101L24.2785 11.7401C24.3255 11.6881 24.3795 11.6451 24.4395 11.6101L24.5485 11.5701L24.7185 11.5001H25.1395C25.5155 11.5391 25.8465 11.7641 26.0195 12.1001L28.2385 16.5701C28.3985 16.8971 28.7095 17.1241 29.0685 17.1791L34.0385 17.9001C34.4585 17.9601 34.8095 18.2501 34.9485 18.6501C35.0795 19.0511 34.9665 19.4911 34.6585 19.7801L30.9185 23.3201Z" fill="#F06993"/>
</g>
<defs>
<filter id="filter0_d_46_454" x="-0.000366211" y="0.500092" width="50.0026" height="49.0013" filterUnits="userSpaceOnUse" color-interpolation-filters="sRGB">
<feFlood flood-opacity="0" result="BackgroundImageFix"/>
<feColorMatrix in="SourceAlpha" type="matrix" values="0 0 0 0 0 0 0 0 0 0 0 0 0 0 0 0 0 0 127 0" result="hardAlpha"/>
<feOffset dy="4"/>
<feGaussianBlur stdDeviation="7.5"/>
<feComposite in2="hardAlpha" operator="out"/>
<feColorMatrix type="matrix" values="0 0 0 0 1 0 0 0 0 1 0 0 0 0 1 0 0 0 0.4 0"/>
<feBlend mode="normal" in2="BackgroundImageFix" result="effect1_dropShadow_46_454"/>
<feBlend mode="normal" in="SourceGraphic" in2="effect1_dropShadow_46_454" result="shape"/>
</filter>
</defs>
</svg>
