<svg width="50" height="46" viewBox="0 0 50 46" fill="none" xmlns="http://www.w3.org/2000/svg">
<g filter="url(#filter0_d_46_443)">
<path fill-rule="evenodd" clip-rule="evenodd" d="M19.113 11.5H24.9051C27.3271 11.5 29.0181 13.169 29.0181 15.5609V22.4391C29.0181 24.831 27.3271 26.5 24.9051 26.5H19.113C16.691 26.5 15 24.831 15 22.4391V15.5609C15 13.169 16.691 11.5 19.113 11.5ZM32.958 13.879C33.397 13.6556 33.912 13.679 34.331 13.9429C34.75 14.2059 35 14.6627 35 15.1622V22.8384C35 23.3389 34.75 23.7947 34.331 24.0577C34.102 24.2008 33.846 24.2739 33.588 24.2739C33.373 24.2739 33.158 24.2231 32.957 24.1206L31.476 23.3734C30.928 23.0952 30.588 22.5369 30.588 21.9165V16.083C30.588 15.4617 30.928 14.9034 31.476 14.6272L32.958 13.879Z" fill="#F06993"/>
</g>
<defs>
<filter id="filter0_d_46_443" x="0" y="0.5" width="50" height="45" filterUnits="userSpaceOnUse" color-interpolation-filters="sRGB">
<feFlood flood-opacity="0" result="BackgroundImageFix"/>
<feColorMatrix in="SourceAlpha" type="matrix" values="0 0 0 0 0 0 0 0 0 0 0 0 0 0 0 0 0 0 127 0" result="hardAlpha"/>
<feOffset dy="4"/>
<feGaussianBlur stdDeviation="7.5"/>
<feComposite in2="hardAlpha" operator="out"/>
<feColorMatrix type="matrix" values="0 0 0 0 1 0 0 0 0 1 0 0 0 0 1 0 0 0 0.4 0"/>
<feBlend mode="normal" in2="BackgroundImageFix" result="effect1_dropShadow_46_443"/>
<feBlend mode="normal" in="SourceGraphic" in2="effect1_dropShadow_46_443" result="shape"/>
</filter>
</defs>
</svg>
