<svg width="335" height="187" viewBox="0 0 335 187" fill="none" xmlns="http://www.w3.org/2000/svg">
<g filter="url(#filter0_d_3_39)">
<path fill-rule="evenodd" clip-rule="evenodd" d="M178 0C178 9.94113 169.941 18 160 18C150.059 18 142 9.94113 142 0H20C8.95431 0 0 8.95431 0 20V166C0 177.046 8.95431 186 20 186H142C142 176.059 150.059 168 160 168C169.941 168 178 176.059 178 186H315C326.046 186 335 177.046 335 166V20C335 8.95431 326.046 0 315 0H178Z" fill="url(#paint0_linear_3_39)" shape-rendering="crispEdges"/>
</g>
<defs>
<filter id="filter0_d_3_39" x="0" y="0" width="335" height="187" filterUnits="userSpaceOnUse" color-interpolation-filters="sRGB">
<feFlood flood-opacity="0" result="BackgroundImageFix"/>
<feColorMatrix in="SourceAlpha" type="matrix" values="0 0 0 0 0 0 0 0 0 0 0 0 0 0 0 0 0 0 127 0" result="hardAlpha"/>
<feOffset dy="1"/>
<feComposite in2="hardAlpha" operator="out"/>
<feColorMatrix type="matrix" values="0 0 0 0 1 0 0 0 0 1 0 0 0 0 1 0 0 0 0.1 0"/>
<feBlend mode="normal" in2="BackgroundImageFix" result="effect1_dropShadow_3_39"/>
<feBlend mode="normal" in="SourceGraphic" in2="effect1_dropShadow_3_39" result="shape"/>
</filter>
<linearGradient id="paint0_linear_3_39" x1="167.5" y1="0" x2="167.5" y2="186" gradientUnits="userSpaceOnUse">
<stop stop-color="white" stop-opacity="0.1"/>
<stop offset="1" stop-color="white" stop-opacity="0.02"/>
</linearGradient>
</defs>
</svg>
