<svg width="12" height="12" viewBox="0 0 12 12" fill="none" xmlns="http://www.w3.org/2000/svg">
<path d="M8.95925 7.16006C8.82975 7.28556 8.77025 7.46706 8.79975 7.64506L9.24426 10.1051C9.28176 10.3136 9.19375 10.5246 9.01925 10.6451C8.84825 10.7701 8.62075 10.7851 8.43425 10.6851L6.21975 9.53006C6.14275 9.48906 6.05725 9.46706 5.96975 9.46456H5.83425C5.78725 9.47156 5.74125 9.48656 5.69925 9.50956L3.48425 10.6701C3.37475 10.7251 3.25075 10.7446 3.12925 10.7251C2.83325 10.6691 2.63575 10.3871 2.68425 10.0896L3.12925 7.62956C3.15875 7.45006 3.09925 7.26756 2.96975 7.14006L1.16425 5.39006C1.01325 5.24356 0.960755 5.02356 1.02975 4.82506C1.09675 4.62706 1.26775 4.48256 1.47425 4.45006L3.95925 4.08956C4.14825 4.07006 4.31425 3.95506 4.39925 3.78506L5.49425 1.54006C5.52025 1.49006 5.55375 1.44406 5.59425 1.40506L5.63925 1.37006C5.66275 1.34406 5.68975 1.32256 5.71975 1.30506L5.77425 1.28506L5.85925 1.25006H6.06975C6.25775 1.26956 6.42325 1.38206 6.50975 1.55006L7.61925 3.78506C7.69925 3.94856 7.85476 4.06206 8.03426 4.08956L10.5193 4.45006C10.7293 4.48006 10.9048 4.62506 10.9743 4.82506C11.0398 5.02556 10.9833 5.24556 10.8293 5.39006L8.95925 7.16006Z" fill="#FDC83F"/>
</svg>
